<svg width="72" height="72" viewBox="0 0 72 72" fill="none" xmlns="http://www.w3.org/2000/svg">
<rect x="12" y="2" width="48" height="48" rx="8" fill="url(#paint0_linear_17_1774)"/>
<g filter="url(#filter0_dd_17_1774)">
<rect x="12" y="2" width="48" height="48" rx="8" fill="white" fill-opacity="0.01" shape-rendering="crispEdges"/>
</g>
<path d="M44.1667 22.5L42.7084 19.2917L39.5001 17.8333L42.7084 16.375L44.1667 13.1667L45.6251 16.375L48.8334 17.8333L45.6251 19.2917L44.1667 22.5ZM44.1667 38.8333L42.7084 35.625L39.5001 34.1667L42.7084 32.7083L44.1667 29.5L45.6251 32.7083L48.8334 34.1667L45.6251 35.625L44.1667 38.8333ZM32.5001 35.3333L29.5834 28.9167L23.1667 26L29.5834 23.0833L32.5001 16.6667L35.4167 23.0833L41.8334 26L35.4167 28.9167L32.5001 35.3333ZM32.5001 29.675L33.6667 27.1667L36.1751 26L33.6667 24.8333L32.5001 22.325L31.3334 24.8333L28.8251 26L31.3334 27.1667L32.5001 29.675Z" fill="white"/>
<defs>
<filter id="filter0_dd_17_1774" x="0" y="0" width="72" height="72" filterUnits="userSpaceOnUse" color-interpolation-filters="sRGB">
<feFlood flood-opacity="0" result="BackgroundImageFix"/>
<feColorMatrix in="SourceAlpha" type="matrix" values="0 0 0 0 0 0 0 0 0 0 0 0 0 0 0 0 0 0 127 0" result="hardAlpha"/>
<feMorphology radius="4" operator="erode" in="SourceAlpha" result="effect1_dropShadow_17_1774"/>
<feOffset dy="4"/>
<feGaussianBlur stdDeviation="3"/>
<feComposite in2="hardAlpha" operator="out"/>
<feColorMatrix type="matrix" values="0 0 0 0 0 0 0 0 0 0 0 0 0 0 0 0 0 0 0.1 0"/>
<feBlend mode="normal" in2="BackgroundImageFix" result="effect1_dropShadow_17_1774"/>
<feColorMatrix in="SourceAlpha" type="matrix" values="0 0 0 0 0 0 0 0 0 0 0 0 0 0 0 0 0 0 127 0" result="hardAlpha"/>
<feMorphology radius="3" operator="erode" in="SourceAlpha" result="effect2_dropShadow_17_1774"/>
<feOffset dy="10"/>
<feGaussianBlur stdDeviation="7.5"/>
<feComposite in2="hardAlpha" operator="out"/>
<feColorMatrix type="matrix" values="0 0 0 0 0 0 0 0 0 0 0 0 0 0 0 0 0 0 0.1 0"/>
<feBlend mode="normal" in2="effect1_dropShadow_17_1774" result="effect2_dropShadow_17_1774"/>
<feBlend mode="normal" in="SourceGraphic" in2="effect2_dropShadow_17_1774" result="shape"/>
</filter>
<linearGradient id="paint0_linear_17_1774" x1="12" y1="2" x2="60" y2="50" gradientUnits="userSpaceOnUse">
<stop stop-color="#6366F1"/>
<stop offset="0.5" stop-color="#A855F7"/>
<stop offset="1" stop-color="#EC4899"/>
</linearGradient>
</defs>
</svg>
