<svg width="15" height="15" viewBox="0 0 15 15" fill="none" xmlns="http://www.w3.org/2000/svg">
<path d="M9.9 6.7125L6.4125 3.225C6.5875 3.15 6.76562 3.09375 6.94688 3.05625C7.12813 3.01875 7.3125 3 7.5 3C8.2375 3 8.85938 3.25313 9.36563 3.75938C9.87188 4.26562 10.125 4.8875 10.125 5.625C10.125 5.8125 10.1063 5.99687 10.0688 6.17812C10.0312 6.35938 9.975 6.5375 9.9 6.7125ZM2.8875 11.325C3.525 10.8375 4.2375 10.4531 5.025 10.1719C5.8125 9.89062 6.6375 9.75 7.5 9.75C7.725 9.75 7.94063 9.75937 8.14688 9.77812C8.35313 9.79688 8.56875 9.825 8.79375 9.8625L7.14375 8.2125C6.55625 8.1375 6.05312 7.89062 5.63438 7.47188C5.21563 7.05313 4.96875 6.55 4.89375 5.9625L2.75625 3.825C2.35625 4.3375 2.04688 4.90312 1.82812 5.52187C1.60938 6.14062 1.5 6.8 1.5 7.5C1.5 8.2375 1.62188 8.93125 1.86563 9.58125C2.10938 10.2312 2.45 10.8125 2.8875 11.325ZM12.225 11.175C12.625 10.6625 12.9375 10.0969 13.1625 9.47812C13.3875 8.85938 13.5 8.2 13.5 7.5C13.5 5.8375 12.9156 4.42188 11.7469 3.25312C10.5781 2.08437 9.1625 1.5 7.5 1.5C6.8 1.5 6.14062 1.6125 5.52187 1.8375C4.90312 2.0625 4.3375 2.375 3.825 2.775L12.225 11.175ZM7.50938 15C6.47813 15 5.50625 14.8031 4.59375 14.4094C3.68125 14.0156 2.88438 13.4781 2.20312 12.7969C1.52188 12.1156 0.984375 11.3188 0.590625 10.4062C0.196875 9.49375 0 8.52188 0 7.49062C0 6.45937 0.196875 5.49062 0.590625 4.58437C0.984375 3.67812 1.52188 2.88438 2.20312 2.20312C2.88438 1.52188 3.68125 0.984375 4.59375 0.590625C5.50625 0.196875 6.47813 0 7.50938 0C8.54062 0 9.50937 0.196875 10.4156 0.590625C11.3219 0.984375 12.1156 1.52188 12.7969 2.20312C13.4781 2.88438 14.0156 3.67812 14.4094 4.58437C14.8031 5.49062 15 6.45937 15 7.49062C15 8.52188 14.8031 9.49375 14.4094 10.4062C14.0156 11.3188 13.4781 12.1156 12.7969 12.7969C12.1156 13.4781 11.3219 14.0156 10.4156 14.4094C9.50937 14.8031 8.54062 15 7.50938 15ZM7.5 13.5C8.1625 13.5 8.7875 13.4031 9.375 13.2094C9.9625 13.0156 10.5 12.7375 10.9875 12.375C10.5 12.0125 9.9625 11.7344 9.375 11.5406C8.7875 11.3469 8.1625 11.25 7.5 11.25C6.8375 11.25 6.2125 11.3469 5.625 11.5406C5.0375 11.7344 4.5 12.0125 4.0125 12.375C4.5 12.7375 5.0375 13.0156 5.625 13.2094C6.2125 13.4031 6.8375 13.5 7.5 13.5Z" fill="#0D93F2"/>
</svg>
